<mxfile host="app.diagrams.net" agent="Mozilla/5.0 (Windows NT 10.0; Win64; x64) AppleWebKit/537.36 (KHTML, like Gecko) Chrome/139.0.0.0 Safari/537.36" version="28.1.0">
  <diagram name="Page-1" id="sahcRIf5QpDxkyutkE7Z">
    <mxGraphModel dx="786" dy="423" grid="1" gridSize="10" guides="1" tooltips="1" connect="1" arrows="1" fold="1" page="1" pageScale="1" pageWidth="850" pageHeight="1100" background="#ffffff" math="0" shadow="0">
      <root>
        <mxCell id="0" />
        <mxCell id="1" parent="0" />
        <mxCell id="Pb1zl97_YixAu-XfNNZr-5" value="" style="html=1;align=center;verticalAlign=top;rounded=1;absoluteArcSize=1;arcSize=20;dashed=1;whiteSpace=wrap;" parent="1" vertex="1">
          <mxGeometry x="341" y="143" width="315" height="135" as="geometry" />
        </mxCell>
        <mxCell id="Pb1zl97_YixAu-XfNNZr-2" value="" style="verticalLabelPosition=bottom;html=1;verticalAlign=top;align=center;strokeColor=none;fillColor=#00BEF2;shape=mxgraph.azure.laptop;pointerEvents=1;" parent="1" vertex="1">
          <mxGeometry x="86" y="188" width="50" height="30" as="geometry" />
        </mxCell>
        <mxCell id="Pb1zl97_YixAu-XfNNZr-6" value="AWS MCP Servers" style="points=[[0,0],[0.25,0],[0.5,0],[0.75,0],[1,0],[1,0.25],[1,0.5],[1,0.75],[1,1],[0.75,1],[0.5,1],[0.25,1],[0,1],[0,0.75],[0,0.5],[0,0.25]];outlineConnect=0;gradientColor=#A4A4A4;html=1;whiteSpace=wrap;fontSize=11;fontStyle=0;container=1;pointerEvents=0;collapsible=0;recursiveResize=0;shape=mxgraph.aws4.group;grIcon=mxgraph.aws4.group_on_premise;strokeColor=#7D8998;fillColor=default;verticalAlign=top;align=left;spacingLeft=30;fontColor=#5A6C86;dashed=0;strokeWidth=1;spacing=3;" parent="1" vertex="1">
          <mxGeometry x="490" y="310" width="230" height="100" as="geometry" />
        </mxCell>
        <mxCell id="Pb1zl97_YixAu-XfNNZr-7" value="&lt;font style=&quot;font-size: 8px;&quot;&gt;AWS Documentation&lt;/font&gt;" style="html=1;whiteSpace=wrap;strokeColor=none;fillColor=#0079D6;labelPosition=center;verticalLabelPosition=middle;verticalAlign=top;align=center;fontSize=11;outlineConnect=0;spacingTop=-6;fontColor=#FFFFFF;sketch=0;shape=mxgraph.sitemap.document;strokeWidth=1;spacing=3;" parent="Pb1zl97_YixAu-XfNNZr-6" vertex="1">
          <mxGeometry x="4" y="55" width="70" height="40" as="geometry" />
        </mxCell>
        <mxCell id="Pb1zl97_YixAu-XfNNZr-8" value="&lt;font style=&quot;font-size: 7px;&quot;&gt;AWS Diagram&lt;/font&gt;" style="image;html=1;image=img/lib/clip_art/computers/Server_Rack_128x128.png;strokeWidth=1;fontSize=11;spacing=3;" parent="Pb1zl97_YixAu-XfNNZr-6" vertex="1">
          <mxGeometry x="84" y="38" width="40" height="40" as="geometry" />
        </mxCell>
        <mxCell id="Pb1zl97_YixAu-XfNNZr-22" value="&lt;font style=&quot;font-size: 7px;&quot;&gt;AWS Cost &amp;amp; Analysis Server&lt;/font&gt;" style="shape=image;html=1;verticalAlign=top;verticalLabelPosition=bottom;labelBackgroundColor=#ffffff;imageAspect=0;aspect=fixed;image=https://icons.diagrams.net/icon-cache1/Business___Startup-2288/77-1369.svg" parent="Pb1zl97_YixAu-XfNNZr-6" vertex="1">
          <mxGeometry x="158" y="34" width="43" height="43" as="geometry" />
        </mxCell>
        <mxCell id="Pb1zl97_YixAu-XfNNZr-14" value="&lt;font style=&quot;font-size: 35px;&quot;&gt;+&lt;/font&gt;" style="rounded=1;whiteSpace=wrap;html=1;dashed=1;fillColor=#f5f5f5;fontColor=#333333;strokeColor=#666666;fillStyle=hatch;shadow=1;glass=0;" parent="1" vertex="1">
          <mxGeometry x="371" y="178" width="260" height="80" as="geometry" />
        </mxCell>
        <mxCell id="Pb1zl97_YixAu-XfNNZr-17" value="&lt;span style=&quot;text-wrap-mode: nowrap; background-color: rgb(255, 255, 255);&quot;&gt;AWS Strands Agent&lt;/span&gt;" style="text;html=1;align=center;verticalAlign=middle;whiteSpace=wrap;rounded=0;" parent="1" vertex="1">
          <mxGeometry x="438" y="131" width="130" height="10" as="geometry" />
        </mxCell>
        <mxCell id="Pb1zl97_YixAu-XfNNZr-3" value="AWS Bedrock" style="sketch=0;points=[[0,0,0],[0.25,0,0],[0.5,0,0],[0.75,0,0],[1,0,0],[0,1,0],[0.25,1,0],[0.5,1,0],[0.75,1,0],[1,1,0],[0,0.25,0],[0,0.5,0],[0,0.75,0],[1,0.25,0],[1,0.5,0],[1,0.75,0]];outlineConnect=0;fontColor=#232F3E;fillColor=#01A88D;strokeColor=#ffffff;dashed=0;verticalLabelPosition=bottom;verticalAlign=top;align=center;html=1;fontSize=12;fontStyle=0;aspect=fixed;shape=mxgraph.aws4.resourceIcon;resIcon=mxgraph.aws4.bedrock;" parent="1" vertex="1">
          <mxGeometry x="395" y="329" width="38" height="38" as="geometry" />
        </mxCell>
        <mxCell id="Pb1zl97_YixAu-XfNNZr-18" value="&lt;span style=&quot;text-wrap-mode: nowrap; background-color: rgb(255, 255, 255);&quot;&gt;Agentic Loop&lt;/span&gt;" style="text;html=1;align=center;verticalAlign=middle;whiteSpace=wrap;rounded=0;" parent="1" vertex="1">
          <mxGeometry x="434" y="165" width="130" height="10" as="geometry" />
        </mxCell>
        <mxCell id="Pb1zl97_YixAu-XfNNZr-19" value="&lt;font style=&quot;&quot;&gt;&lt;span style=&quot;font-size: 11px;&quot;&gt;tools&lt;/span&gt;&lt;br&gt;&lt;font style=&quot;font-size: 8px;&quot;&gt;(use_aws+MCP Clients)&lt;/font&gt;&lt;/font&gt;" style="html=1;verticalLabelPosition=bottom;align=center;labelBackgroundColor=#ffffff;verticalAlign=top;strokeWidth=2;strokeColor=#0080F0;shadow=0;dashed=0;shape=mxgraph.ios7.icons.tools;pointerEvents=1" parent="1" vertex="1">
          <mxGeometry x="556.15" y="190.65" width="29.7" height="29.7" as="geometry" />
        </mxCell>
        <mxCell id="Pb1zl97_YixAu-XfNNZr-25" value="&lt;font style=&quot;font-size: 10px;&quot;&gt;Claude Sonnet 4&lt;/font&gt;" style="sketch=0;outlineConnect=0;fontColor=#232F3E;gradientColor=none;fillColor=#01A88D;strokeColor=none;dashed=0;verticalLabelPosition=bottom;verticalAlign=top;align=center;html=1;fontSize=12;fontStyle=0;aspect=fixed;pointerEvents=1;shape=mxgraph.aws4.sagemaker_model;" parent="1" vertex="1">
          <mxGeometry x="391" y="189" width="48" height="48" as="geometry" />
        </mxCell>
        <mxCell id="Pb1zl97_YixAu-XfNNZr-26" value="AWS Cloud" style="points=[[0,0],[0.25,0],[0.5,0],[0.75,0],[1,0],[1,0.25],[1,0.5],[1,0.75],[1,1],[0.75,1],[0.5,1],[0.25,1],[0,1],[0,0.75],[0,0.5],[0,0.25]];outlineConnect=0;gradientColor=none;html=1;whiteSpace=wrap;fontSize=12;fontStyle=0;container=1;pointerEvents=0;collapsible=0;recursiveResize=0;shape=mxgraph.aws4.group;grIcon=mxgraph.aws4.group_aws_cloud_alt;strokeColor=#232F3E;fillColor=none;verticalAlign=top;align=left;spacingLeft=30;fontColor=#232F3E;dashed=0;" parent="1" vertex="1">
          <mxGeometry x="260" y="100" width="490" height="350" as="geometry" />
        </mxCell>
        <mxCell id="Pb1zl97_YixAu-XfNNZr-30" value="" style="shape=umlActor;verticalLabelPosition=bottom;verticalAlign=top;html=1;outlineConnect=0;" parent="1" vertex="1">
          <mxGeometry x="62" y="186" width="14" height="37" as="geometry" />
        </mxCell>
      </root>
    </mxGraphModel>
  </diagram>
</mxfile>
